<svg width="44" height="44" viewBox="0 0 44 44" fill="none" xmlns="http://www.w3.org/2000/svg">
<rect width="44" height="44" rx="22" fill="#F9F9F9"/>
<path d="M24.75 8.51562C25.3958 8.51562 25.9323 8.5625 26.3594 8.65625L26 13.125C25.6146 13.0208 25.1458 12.9688 24.5938 12.9688C23.0729 12.9688 21.8854 13.3594 21.0312 14.1406C20.1875 14.9219 19.7656 16.0156 19.7656 17.4219V26.3125H15V8.84375H18.6094L19.3125 11.7812H19.5469C20.0885 10.8021 20.8177 10.0156 21.7344 9.42188C22.6615 8.81771 23.6667 8.51562 24.75 8.51562Z" fill="black"/>
<path d="M21.5938 40C20.375 40 19.3281 39.8698 18.4531 39.6094V35.8594C19.1823 36.0573 19.9271 36.1562 20.6875 36.1562C21.4896 36.1562 22.0729 35.9323 22.4375 35.4844C22.8125 35.0365 23 34.375 23 33.5V14.8438H27.7656V34.2031C27.7656 36.0573 27.2292 37.4844 26.1562 38.4844C25.0833 39.4948 23.5625 40 21.5938 40ZM22.7969 10.3281C22.7969 8.77604 23.6615 8 25.3906 8C27.1198 8 27.9844 8.77604 27.9844 10.3281C27.9844 11.0677 27.7656 11.6458 27.3281 12.0625C26.901 12.4688 26.2552 12.6719 25.3906 12.6719C23.6615 12.6719 22.7969 11.8906 22.7969 10.3281Z" fill="black"/>
</svg>
