<svg width="13" height="32" viewBox="0 0 13 32" fill="none" xmlns="http://www.w3.org/2000/svg">
<path d="M9.75 0.515625C10.3958 0.515625 10.9323 0.5625 11.3594 0.65625L11 5.125C10.6146 5.02083 10.1458 4.96875 9.59375 4.96875C8.07292 4.96875 6.88542 5.35938 6.03125 6.14062C5.1875 6.92188 4.76562 8.01562 4.76562 9.42188V18.3125H0V0.84375H3.60938L4.3125 3.78125H4.54688C5.08854 2.80208 5.81771 2.01562 6.73438 1.42188C7.66146 0.817708 8.66667 0.515625 9.75 0.515625Z" fill="#444444"/>
<path d="M6.59375 32C5.375 32 4.32812 31.8698 3.45312 31.6094V27.8594C4.18229 28.0573 4.92708 28.1562 5.6875 28.1562C6.48958 28.1562 7.07292 27.9323 7.4375 27.4844C7.8125 27.0365 8 26.375 8 25.5V6.84375H12.7656V26.2031C12.7656 28.0573 12.2292 29.4844 11.1562 30.4844C10.0833 31.4948 8.5625 32 6.59375 32ZM7.79688 2.32812C7.79688 0.776042 8.66146 0 10.3906 0C12.1198 0 12.9844 0.776042 12.9844 2.32812C12.9844 3.06771 12.7656 3.64583 12.3281 4.0625C11.901 4.46875 11.2552 4.67188 10.3906 4.67188C8.66146 4.67188 7.79688 3.89062 7.79688 2.32812Z" fill="#444444"/>
</svg>
